<svg xmlns="http://www.w3.org/2000/svg" width="1280" height="640" fill="none" viewBox="0 0 1280 640"><path fill="#1FAECE" fill-rule="evenodd" d="M799.743 46.8159C792.583 42.4324 784.241 40 775.552 40L505.383 40C496.695 40 488.353 42.4324 481.193 46.8158C474.721 50.7776 469.214 56.3331 465.287 63.1271L330.203 296.873C325.816 304.464 323.756 312.988 324.023 321.457C324.259 328.954 326.319 336.407 330.203 343.127L465.287 576.873C469.214 583.667 474.721 589.222 481.193 593.184C488.353 597.568 496.695 600 505.384 600L775.552 600C784.241 600 792.583 597.568 799.744 593.184C806.215 589.222 811.722 583.667 815.649 576.873L950.733 343.127C954.617 336.407 956.677 328.954 956.913 321.457C957.18 312.988 955.12 304.464 950.733 296.873L815.649 63.1271C811.722 56.3331 806.215 50.7776 799.743 46.8159ZM539.774 169.017V154.632H568.543V169.017H712.393V154.632H741.162V169.017H798.702V485.485H482.234V169.017H539.774ZM539.774 197.786H511.004V226.556H769.932V197.786H741.162V212.171H712.393V197.786H568.543V212.171H539.774V197.786ZM769.932 255.326H511.004V456.715H769.932V255.326ZM597.313 312.866V284.096H626.083V312.866H597.313ZM654.853 312.866V284.096H683.623V312.866H654.853ZM712.393 312.866V284.096H741.162V312.866H712.393ZM640.468 384.79V327.251H698.008V384.79H640.468ZM539.774 370.405V341.636H568.543V370.405H539.774ZM597.313 370.405V341.636H626.083V370.405H597.313ZM712.393 370.405V341.636H741.162V370.405H712.393ZM539.774 427.945V399.175H568.543V427.945H539.774ZM597.313 427.945V399.175H626.083V427.945H597.313ZM654.853 427.945V399.175H683.623V427.945H654.853Z" clip-rule="evenodd"/></svg>